<?xml version="1.0" encoding="utf-8"?>
<!-- Generator: Adobe Illustrator 16.0.0, SVG Export Plug-In . SVG Version: 6.00 Build 0)  -->
<!DOCTYPE svg PUBLIC "-//W3C//DTD SVG 1.1//EN" "http://www.w3.org/Graphics/SVG/1.1/DTD/svg11.dtd">
<svg version="1.1" id="Layer_2" xmlns="http://www.w3.org/2000/svg" xmlns:xlink="http://www.w3.org/1999/xlink" x="0px" y="0px"
	 width="100px" height="100px" viewBox="0 0 100 100" enable-background="new 0 0 100 100" xml:space="preserve">
<g>
	<g>
		<g>
			<path d="M23.445,71.17c-12.329,0-20.295-8.181-20.295-20.842c0-12.858,8.597-21.498,21.391-21.498c5.526,0,8.65,1.315,9.737,1.88
				c0.909,0.479,1.346,1.53,1.043,2.504L34.118,37.1c-0.188,0.601-0.624,1.08-1.195,1.322c-0.259,0.111-0.539,0.169-0.826,0.169l0,0
				c-0.329,0-0.658-0.079-0.952-0.227c-0.971-0.487-3.106-1.308-6.439-1.308c-7.808,0-12.285,4.777-12.285,13.107
				c0,8.087,4.378,12.725,12.012,12.725c2.543,0,5.254-0.519,6.907-1.322c0.547-0.269,1.249-0.279,1.824-0.009
				c0.572,0.263,0.997,0.777,1.152,1.406l0.934,3.838c0.229,0.952-0.217,1.929-1.083,2.379C32.302,70.144,28.509,71.17,23.445,71.17
				z M24.541,31.83c-11,0-18.391,7.434-18.391,18.498c0,10.839,6.789,17.842,17.295,17.842c4.164,0,7.19-0.768,8.715-1.373
				l-0.513-2.106c-2.01,0.75-4.663,1.198-7.216,1.198c-9.26,0-15.012-6.025-15.012-15.725c0-9.936,5.857-16.107,15.285-16.107
				c3.123,0,5.418,0.638,6.842,1.205l0.679-2.191C31.063,32.605,28.527,31.83,24.541,31.83z"/>
		</g>
	</g>
	<g>
		<g>
			<path d="M66.646,70.568h-4.818c-1.166,0-2.115-0.949-2.115-2.115V53.266H46.092v15.188c0,1.166-0.949,2.115-2.115,2.115h-4.818
				c-1.166,0-2.115-0.949-2.115-2.115V31.547c0-1.166,0.949-2.115,2.115-2.115h4.818c1.166,0,2.115,0.949,2.115,2.115v13.326h13.621
				V31.547c0-1.166,0.949-2.115,2.115-2.115h4.818c1.166,0,2.115,0.949,2.115,2.115v36.906
				C68.762,69.619,67.813,70.568,66.646,70.568z M62.713,67.568h3.049V32.432h-3.049v13.941c0,0.828-0.672,1.5-1.5,1.5H44.592
				c-0.828,0-1.5-0.672-1.5-1.5V32.432h-3.049v35.137h3.049V51.766c0-0.828,0.672-1.5,1.5-1.5h16.621c0.828,0,1.5,0.672,1.5,1.5
				V67.568z"/>
		</g>
	</g>
	<g>
		<g>
			<path d="M79.676,70.568h-4.818c-1.166,0-2.115-0.949-2.115-2.115V31.547c0-1.166,0.949-2.115,2.115-2.115h19.877
				c1.166,0,2.115,0.949,2.115,2.115v3.998c0,1.165-0.949,2.113-2.115,2.113H81.791v8.035h11.793c1.166,0,2.115,0.95,2.115,2.117
				v3.941c0,1.166-0.949,2.115-2.115,2.115H81.791v14.586C81.791,69.619,80.842,70.568,79.676,70.568z M75.742,67.568h3.049V52.367
				c0-0.828,0.672-1.5,1.5-1.5h12.408v-2.174H80.291c-0.828,0-1.5-0.672-1.5-1.5V36.158c0-0.828,0.672-1.5,1.5-1.5H93.85v-2.227
				H75.742V67.568z"/>
		</g>
	</g>
</g>
</svg>
