<svg height="512pt" viewBox="0 0 512 512" width="512pt" xmlns="http://www.w3.org/2000/svg" xmlns:xlink="http://www.w3.org/1999/xlink"><linearGradient id="a" gradientUnits="userSpaceOnUse" x1="256" x2="256" y1="0" y2="512"><stop offset="0" stop-color="#2af598"/><stop offset="1" stop-color="#009efd"/></linearGradient><path d="m256 512c-68.378906 0-132.667969-26.628906-181.019531-74.980469-48.351563-48.351562-74.980469-112.640625-74.980469-181.019531s26.628906-132.667969 74.980469-181.019531c48.351562-48.351563 112.640625-74.980469 181.019531-74.980469s132.667969 26.628906 181.019531 74.980469c48.351563 48.351562 74.980469 112.640625 74.980469 181.019531s-26.628906 132.667969-74.980469 181.019531c-48.351562 48.351563-112.640625 74.980469-181.019531 74.980469zm0-472c-119.101562 0-216 96.898438-216 216s96.898438 216 216 216 216-96.898438 216-216-96.898438-216-216-216zm58.902344 231.023438c0-.015626 0-.03125 0-.046876-2.8125-.03125-5.636719.117188-8.460938.40625-.097656.007813-.199218.019532-.296875.03125-1.089843.113282-2.175781.253907-3.265625.417969-.261718.039063-.519531.082031-.777344.125-.585937.09375-1.167968.171875-1.75.277344-.710937-.125-1.5625-.457031-2.523437-.957031-11.410156-5.960938-12.984375-21.691406-3.300781-30.171875 1.199218-1.050781 2.289062-1.894531 3.214844-2.480469 3.488281.675781 7.058593 1.113281 10.699218 1.285156 1.195313.058594 2.382813.089844 3.558594.089844 1.140625 0 2.273438-.035156 3.402344-.085938.296875-.011718.597656-.027343.894531-.042968 1.085937-.0625 2.164063-.140625 3.234375-.25.195312-.019532.390625-.046875.585938-.066406.890624-.097657 1.773437-.210938 2.65625-.339844.402343-.058594.804687-.117188 1.203124-.183594.847657-.136719 1.691407-.285156 2.527344-.453125.511719-.097656 1.019532-.210937 1.527344-.320313.632812-.140624 1.265625-.28125 1.890625-.4375.476563-.117187.953125-.234374 1.425781-.363281.105469-.027343.214844-.050781.324219-.082031 0-.003906 0-.007812 0-.011719 31.839844-8.664062 55.328125-37.8125 55.328125-72.363281 0-41.355469-33.644531-75-75-75s-75 33.644531-75 75c0 12.382812 3.035156 24.0625 8.371094 34.363281-.011719.015625-.027344.027344-.039063.039063 1.824219 3.519531 3.941407 6.917968 6.339844 10.160156.480469 1.699219.242187 4.703125-.527344 8.382812-2.195312 10.46875-12.914062 16.8125-23.195312 13.851563-2.171875-.625-3.976563-1.273437-5.289063-1.917969-10.355468-29.035156-38.113281-49.878906-70.660156-49.878906-41.355469 0-75 33.644531-75 75s33.644531 75 75 75c22.902344 0 43.425781-10.328125 57.195312-26.558594.050782.054688.109376.105469.164063.160156 4.84375-5.757812 8.820313-12.25 11.789063-19.355468 1.113281-1.179688 3.484374-2.40625 6.621093-3.546875 9.695313-3.53125 20.378907 1.476562 23.859375 11.191406 1.3125 3.667969 2.191406 6.859375 2.421875 9.03125-2.9375 3.941406-5.449219 8.039063-7.484375 12.21875-.214844.441406-.40625.890625-.613281 1.335937.007813 0 .011719.003907.015625.007813-4.460938 9.585937-6.96875 20.261719-6.96875 31.515625 0 41.355469 33.644531 75 75 75s75-33.644531 75-75c0-41.050781-33.15625-74.488281-74.097656-74.976562zm-162.902344 18.976562c-19.300781 0-35-15.699219-35-35s15.699219-35 35-35c5.945312 0 11.546875 1.492188 16.453125 4.121094-.0625.082031-.132813.164062-.195313.246094 5.507813 2.894531 10.320313 7.269531 13.738282 12.992187 1.386718 2.320313 2.523437 4.882813 3.476562 7.835937.15625.484376.328125.957032.507813 1.421876.660156 2.6875 1.019531 5.492187 1.019531 8.382812 0 19.300781-15.699219 35-35 35zm160-160c19.300781 0 35 15.699219 35 35 0 15.027344-9.523438 27.871094-22.847656 32.820312-.308594.113282-.621094.21875-.929688.324219-.199218.066407-.398437.136719-.601562.203125-.289063.09375-.582032.175782-.875.261719-.230469.066406-.460938.136719-.695313.199219-.277343.074218-.558593.140625-.839843.210937-.257813.058594-.511719.121094-.773438.175781-.265625.058594-.535156.113282-.804688.167969-.28125.050781-.5625.101563-.847656.148438-.253906.042969-.511718.085937-.765625.125-.308593.042969-.621093.082031-.933593.117187-.238282.027344-.476563.058594-.714844.082032-.359375.03125-.722656.058593-1.082032.082031-.199218.011719-.394531.03125-.589843.039062-.5625.027344-1.128907.042969-1.699219.042969-.671875 0-1.347656-.019531-2.03125-.0625-.015625 0-.035156-.003906-.050781-.003906-1.855469-.117188-3.773438-.402344-5.785157-.835938-9.285156-2.140625-17.171874-7.980468-22.011718-15.886718-.023438-.039063-.050782-.082032-.074219-.125-.273437-.445313-.53125-.894532-.78125-1.355469-.03125-.058594-.066406-.121094-.097656-.179688-2.65625-4.933593-4.167969-10.566406-4.167969-16.550781 0-19.300781 15.699219-35 35-35zm2 251c-19.300781 0-35-15.699219-35-35 0-17.410156 12.777344-31.886719 29.445312-34.554688.132813-.019531.261719-.042968.394532-.0625 1.683594-.25 3.40625-.382812 5.160156-.382812 19.300781 0 35 15.699219 35 35s-15.699219 35-35 35zm0 0" fill="url(#a)"/></svg>