<?xml version="1.0"?>
<svg xmlns="http://www.w3.org/2000/svg" height="512px" viewBox="-8 0 496 496" width="512px"><path d="m430.679688 91.558594c-2.453126-3.675782-7.421876-4.667969-11.097657-2.214844s-4.667969 7.421875-2.214843 11.097656c29.714843 43.53125 45.941406 94.855469 46.65625 147.558594-.714844 52.703125-16.941407 104.027344-46.65625 147.558594-2.453126 3.675781-1.460938 8.644531 2.214843 11.097656s8.644531 1.460938 11.097657-2.214844c31.558593-46.121094 48.730468-100.5625 49.34375-156.441406-.613282-55.878906-17.785157-110.320312-49.34375-156.441406zm0 0" fill="#FFFFFF"/><path d="m391.007812 132.105469c-1.351562-2.578125-3.992187-4.21875-6.898437-4.289063-2.910156-.066406-5.625 1.445313-7.09375 3.957032-1.46875 2.511718-1.460937 5.621093.023437 8.121093 19.417969 32.785157 30.085938 70.011719 30.984376 108.105469-.898438 38.09375-11.566407 75.320312-30.984376 108.105469-1.484374 2.5-1.492187 5.609375-.023437 8.121093 1.46875 2.511719 4.183594 4.023438 7.09375 3.957032 2.90625-.070313 5.546875-1.710938 6.898437-4.289063 20.761719-35.160156 32.132813-75.070312 33.015626-115.894531-.882813-40.824219-12.253907-80.734375-33.015626-115.894531zm0 0" fill="#FFFFFF"/><path d="m358.902344 162.816406c.058594-.53125.058594-1.070312 0-1.601562-.082032-.496094-.210938-.980469-.382813-1.453125-.078125-.390625-.179687-.769531-.304687-1.144531-6.992188-14.144532-15.601563-27.425782-25.65625-39.585938-.308594-.292969-.644532-.5625-1-.800781-.316406-.296875-.664063-.566407-1.03125-.796875-.890625-.457032-1.832032-.8125-2.800782-1.058594-.636718-.074219-1.28125-.074219-1.917968 0-.375.015625-.746094.050781-1.113282.113281-.882812.332031-1.761718.675781-2.640624 1.023438l-17.070313 11c-2.925781-3.152344-5.957031-6.1875-9.097656-9.113281 0-.160157 0-.292969 0-.453126l-8-56c-.527344-3.953124-3.878907-6.914062-7.863281-6.945312h-24v-48c0-4.417969-3.582032-8-8-8h-144c-4.417969 0-8 3.582031-8 8v48h-24c-3.980469 0-7.355469 2.925781-7.921876 6.863281l-8 56c0 .160157.042969.296875 0 .457031-35.773437 33.230469-56.101562 79.851563-56.101562 128.679688s20.328125 95.449219 56.101562 128.679688c0 .160156-.039062.296874 0 .457031l8 56c.566407 3.9375 3.941407 6.863281 7.921876 6.863281h24v48c0 4.417969 3.582031 8 8 8h144c4.417968 0 8-3.582031 8-8v-48h24c3.976562 0 7.351562-2.917969 7.917968-6.855469l8-55.382812c.003906-.351563-.015625-.703125-.0625-1.050781 54.019532-50.167969 70.972656-128.730469 42.449219-196.710938l17.085937-11.097656c.289063-.242188.554688-.511719.800782-.796875.425781-.339844.8125-.726563 1.160156-1.144531.28125-.398438.527344-.820313.726562-1.265626.253907-.464843.460938-.949218.617188-1.457031.105469-.464843.167969-.941406.183594-1.421875zm-85.816406-90.816406 4.640624 32.496094c-6.90625-4.910156-14.160156-9.316406-21.703124-13.183594v-19.3125zm-161.0625-56h128v68.097656c-41.144532-16.128906-86.859376-16.128906-128 0zm-33.0625 56h17.0625v19.3125c-7.542969 3.867188-14.796876 8.273438-21.703126 13.183594zm0 352-4.640626-32.496094c6.90625 4.910156 14.160157 9.316406 21.703126 13.183594v19.3125zm161.0625 56h-128v-68.097656c41.140624 16.128906 86.855468 16.128906 128 0zm33.070312-56h-17.070312v-19.3125c7.566406-3.882812 14.84375-8.304688 21.777343-13.230469zm-97.070312-16c-88.367188 0-160-71.632812-160-160s71.632812-160 160-160c88.363281 0 160 71.632812 160 160-.101563 88.324219-71.675782 159.898438-160 160zm139.40625-267.246094 9.195312-5.921875c5.949219 7.769531 11.285156 15.996094 15.949219 24.601563l-9.199219 5.964844c-4.621094-8.644532-9.953125-16.886719-15.945312-24.644532zm0 0" fill="#FFFFFF"/><path d="m176.023438 120c-70.691407 0-128 57.308594-128 128s57.308593 128 128 128c70.691406 0 128-57.308594 128-128-.085938-70.65625-57.34375-127.917969-128-128zm0 240c-61.855469 0-112-50.144531-112-112s50.144531-112 112-112c61.855468 0 112 50.144531 112 112-.066407 61.828125-50.171876 111.933594-112 112zm0 0" fill="#FFFFFF"/></svg>
